<mxfile host="app.diagrams.net" agent="Mozilla/5.0 (Windows NT 10.0; Win64; x64) AppleWebKit/537.36 (KHTML, like Gecko) Chrome/135.0.0.0 Safari/537.36" version="26.2.13">
  <diagram name="第 1 页" id="TUw0yTsvU0ekDCsxjjTO">
    <mxGraphModel dx="1215" dy="623" grid="1" gridSize="10" guides="1" tooltips="1" connect="1" arrows="1" fold="1" page="1" pageScale="1" pageWidth="827" pageHeight="1169" math="0" shadow="0">
      <root>
        <mxCell id="0" />
        <mxCell id="1" parent="0" />
        <mxCell id="VWOqK5UOy4SbTC0aDcb2-4" style="edgeStyle=orthogonalEdgeStyle;rounded=0;orthogonalLoop=1;jettySize=auto;html=1;exitX=1;exitY=0.5;exitDx=0;exitDy=0;entryX=0;entryY=0.5;entryDx=0;entryDy=0;" edge="1" parent="1" source="VWOqK5UOy4SbTC0aDcb2-1" target="VWOqK5UOy4SbTC0aDcb2-2">
          <mxGeometry relative="1" as="geometry" />
        </mxCell>
        <mxCell id="VWOqK5UOy4SbTC0aDcb2-1" value="New Game" style="rounded=0;whiteSpace=wrap;html=1;" vertex="1" parent="1">
          <mxGeometry x="40" y="40" width="120" height="60" as="geometry" />
        </mxCell>
        <mxCell id="VWOqK5UOy4SbTC0aDcb2-5" style="edgeStyle=orthogonalEdgeStyle;rounded=0;orthogonalLoop=1;jettySize=auto;html=1;exitX=1;exitY=0.5;exitDx=0;exitDy=0;entryX=0;entryY=0.5;entryDx=0;entryDy=0;" edge="1" parent="1" source="VWOqK5UOy4SbTC0aDcb2-2" target="VWOqK5UOy4SbTC0aDcb2-3">
          <mxGeometry relative="1" as="geometry" />
        </mxCell>
        <mxCell id="VWOqK5UOy4SbTC0aDcb2-2" value="文字描述故事背景" style="rounded=0;whiteSpace=wrap;html=1;" vertex="1" parent="1">
          <mxGeometry x="200" y="40" width="120" height="60" as="geometry" />
        </mxCell>
        <mxCell id="VWOqK5UOy4SbTC0aDcb2-3" value="教学关卡(拼写和判断两种模式)" style="rounded=0;whiteSpace=wrap;html=1;" vertex="1" parent="1">
          <mxGeometry x="360" y="40" width="120" height="60" as="geometry" />
        </mxCell>
        <mxCell id="VWOqK5UOy4SbTC0aDcb2-9" style="edgeStyle=orthogonalEdgeStyle;rounded=0;orthogonalLoop=1;jettySize=auto;html=1;exitX=1;exitY=0.5;exitDx=0;exitDy=0;entryX=0;entryY=0.5;entryDx=0;entryDy=0;" edge="1" parent="1" source="VWOqK5UOy4SbTC0aDcb2-6" target="VWOqK5UOy4SbTC0aDcb2-7">
          <mxGeometry relative="1" as="geometry" />
        </mxCell>
        <mxCell id="VWOqK5UOy4SbTC0aDcb2-6" value="Library" style="rounded=0;whiteSpace=wrap;html=1;" vertex="1" parent="1">
          <mxGeometry x="40" y="160" width="120" height="60" as="geometry" />
        </mxCell>
        <mxCell id="VWOqK5UOy4SbTC0aDcb2-10" style="edgeStyle=orthogonalEdgeStyle;rounded=0;orthogonalLoop=1;jettySize=auto;html=1;exitX=1;exitY=0.5;exitDx=0;exitDy=0;entryX=0;entryY=0.5;entryDx=0;entryDy=0;" edge="1" parent="1" source="VWOqK5UOy4SbTC0aDcb2-7" target="VWOqK5UOy4SbTC0aDcb2-8">
          <mxGeometry relative="1" as="geometry" />
        </mxCell>
        <mxCell id="VWOqK5UOy4SbTC0aDcb2-7" value="书架页面" style="rounded=0;whiteSpace=wrap;html=1;" vertex="1" parent="1">
          <mxGeometry x="200" y="160" width="120" height="60" as="geometry" />
        </mxCell>
        <mxCell id="VWOqK5UOy4SbTC0aDcb2-12" style="edgeStyle=orthogonalEdgeStyle;rounded=0;orthogonalLoop=1;jettySize=auto;html=1;exitX=1;exitY=0.5;exitDx=0;exitDy=0;entryX=0;entryY=0.5;entryDx=0;entryDy=0;" edge="1" parent="1" source="VWOqK5UOy4SbTC0aDcb2-8" target="VWOqK5UOy4SbTC0aDcb2-11">
          <mxGeometry relative="1" as="geometry" />
        </mxCell>
        <mxCell id="VWOqK5UOy4SbTC0aDcb2-8" value="词书页面&lt;div&gt;10-20个相关单词&lt;/div&gt;&lt;div&gt;(配图)&lt;/div&gt;" style="rounded=0;whiteSpace=wrap;html=1;" vertex="1" parent="1">
          <mxGeometry x="360" y="160" width="120" height="60" as="geometry" />
        </mxCell>
        <mxCell id="VWOqK5UOy4SbTC0aDcb2-18" style="edgeStyle=orthogonalEdgeStyle;rounded=0;orthogonalLoop=1;jettySize=auto;html=1;exitX=0.5;exitY=1;exitDx=0;exitDy=0;entryX=0.5;entryY=0;entryDx=0;entryDy=0;" edge="1" parent="1" source="VWOqK5UOy4SbTC0aDcb2-11" target="VWOqK5UOy4SbTC0aDcb2-15">
          <mxGeometry relative="1" as="geometry" />
        </mxCell>
        <mxCell id="VWOqK5UOy4SbTC0aDcb2-11" value="导师指导检测" style="rounded=0;whiteSpace=wrap;html=1;" vertex="1" parent="1">
          <mxGeometry x="560" y="160" width="120" height="60" as="geometry" />
        </mxCell>
        <mxCell id="VWOqK5UOy4SbTC0aDcb2-13" value="选择" style="text;html=1;align=center;verticalAlign=middle;whiteSpace=wrap;rounded=0;" vertex="1" parent="1">
          <mxGeometry x="310" y="160" width="60" height="30" as="geometry" />
        </mxCell>
        <mxCell id="VWOqK5UOy4SbTC0aDcb2-14" value="学习完毕" style="text;html=1;align=center;verticalAlign=middle;whiteSpace=wrap;rounded=0;" vertex="1" parent="1">
          <mxGeometry x="490" y="160" width="60" height="30" as="geometry" />
        </mxCell>
        <mxCell id="VWOqK5UOy4SbTC0aDcb2-19" style="edgeStyle=orthogonalEdgeStyle;rounded=0;orthogonalLoop=1;jettySize=auto;html=1;exitX=0.5;exitY=1;exitDx=0;exitDy=0;entryX=0.5;entryY=0;entryDx=0;entryDy=0;" edge="1" parent="1" source="VWOqK5UOy4SbTC0aDcb2-15" target="VWOqK5UOy4SbTC0aDcb2-16">
          <mxGeometry relative="1" as="geometry" />
        </mxCell>
        <mxCell id="VWOqK5UOy4SbTC0aDcb2-15" value="Start Adventure" style="rounded=0;whiteSpace=wrap;html=1;" vertex="1" parent="1">
          <mxGeometry x="560" y="260" width="120" height="60" as="geometry" />
        </mxCell>
        <mxCell id="VWOqK5UOy4SbTC0aDcb2-16" value="游戏场景" style="rounded=0;whiteSpace=wrap;html=1;" vertex="1" parent="1">
          <mxGeometry x="560" y="350" width="120" height="60" as="geometry" />
        </mxCell>
      </root>
    </mxGraphModel>
  </diagram>
</mxfile>
